<?xml version="1.0" standalone="no"?>
<!DOCTYPE svg PUBLIC "-//W3C//DTD SVG 20010904//EN"
 "http://www.w3.org/TR/2001/REC-SVG-20010904/DTD/svg10.dtd">
<svg version="1.0" xmlns="http://www.w3.org/2000/svg"
 width="500.000000pt" height="500.000000pt" viewBox="0 0 500.000000 500.000000"
 preserveAspectRatio="xMidYMid meet">

<g transform="translate(0.000000,500.000000) scale(0.100000,-0.100000)"
fill="#000000" stroke="none">
<path d="M1883 3893 c-29 -6 -29 -12 11 -158 26 -99 35 -120 51 -123 11 -1 27
2 35 8 13 8 10 27 -20 145 -19 74 -39 134 -45 134 -5 -1 -20 -4 -32 -6z"/>
<path d="M2977 3803 c-3 -10 -8 -40 -12 -67 -9 -68 -47 -106 -105 -106 -44 0
-77 25 -126 94 l-21 29 -56 -43 -57 -42 40 -56 c44 -61 51 -105 25 -146 -24
-37 -67 -50 -139 -42 l-64 6 -11 -63 c-6 -35 -11 -66 -11 -69 0 -3 25 -8 56
-12 94 -11 133 -43 134 -111 0 -35 -6 -45 -60 -95 l-59 -55 40 -53 c43 -56 42
-56 101 -10 44 35 88 44 127 28 51 -21 64 -53 58 -137 -6 -82 -13 -75 85 -88
l47 -6 7 63 c6 53 12 68 40 96 25 25 40 32 70 32 34 0 45 -7 95 -60 l56 -60
49 37 c27 20 51 38 53 39 2 2 -16 31 -39 66 -50 76 -50 115 1 162 31 28 34 28
109 22 l77 -7 6 53 c11 87 11 88 -26 88 -80 0 -142 39 -153 95 -8 45 16 87 71
125 25 17 45 34 45 39 0 4 -17 30 -38 59 l-38 51 -59 -40 c-75 -51 -114 -52
-161 -5 -36 36 -39 52 -25 138 l8 47 -41 6 c-23 3 -53 8 -68 11 -20 4 -28 1
-31 -13z m56 -314 c82 -22 146 -111 147 -202 0 -61 -21 -107 -70 -151 -85 -77
-207 -74 -285 8 -82 84 -85 195 -10 283 53 62 134 86 218 62z"/>
<path d="M2390 3704 c-219 -47 -409 -226 -476 -449 -29 -95 -25 -259 9 -356
47 -138 118 -237 224 -315 117 -86 133 -119 133 -276 0 -94 1 -99 29 -130 l29
-33 174 -3 c159 -2 176 -1 206 18 44 27 52 54 52 168 0 117 18 163 80 213 62
49 150 131 150 139 0 3 -49 12 -110 20 -138 16 -141 18 -127 121 17 127 1 136
-103 59 -43 -32 -74 -48 -84 -44 -9 3 -47 49 -86 101 -81 110 -81 110 11 174
50 36 59 47 57 68 -3 24 -8 27 -93 41 -89 15 -90 15 -93 45 -5 48 26 227 40
236 7 4 33 5 58 1 25 -4 65 -7 90 -7 62 0 64 23 6 100 -46 61 -55 92 -34 113
17 17 -57 15 -142 -4z m-107 -233 c16 -27 16 -31 2 -39 -76 -42 -157 -170
-176 -279 -31 -179 71 -369 238 -445 125 -56 193 -135 208 -240 l7 -48 -35 0
c-32 0 -35 3 -42 38 -9 49 -46 112 -82 137 -15 12 -59 36 -97 54 -258 126
-351 460 -195 703 29 44 132 148 148 148 4 0 15 -13 24 -29z m277 -1171 l0
-50 -35 0 -35 0 0 50 0 50 35 0 35 0 0 -50z"/>
<path d="M1576 3685 c-9 -13 -16 -26 -16 -29 0 -2 54 -42 119 -89 126 -90 126
-90 155 -40 4 8 -37 43 -114 97 -66 47 -122 86 -124 86 -2 0 -11 -11 -20 -25z"/>
<path d="M1637 3332 l-139 -35 6 -30 c3 -17 7 -32 9 -33 1 -1 63 12 137 30
139 34 149 40 133 82 -8 20 -10 20 -146 -14z"/>
<path d="M1861 2972 c-2 -21 -48 -62 -71 -62 -12 0 -42 14 -67 31 l-45 31 -34
-33 -33 -32 29 -41 c34 -46 39 -95 12 -119 -10 -9 -41 -21 -70 -27 l-52 -12 0
-43 0 -43 51 -7 c88 -12 113 -65 64 -137 -31 -46 -31 -55 1 -89 l27 -28 43 29
c47 33 104 40 124 15 7 -9 18 -39 25 -68 11 -52 12 -52 52 -55 l41 -3 11 53
c7 29 19 60 28 70 23 25 72 22 115 -7 20 -14 41 -25 46 -25 4 0 24 16 42 35
33 34 34 37 20 63 -9 14 -37 43 -64 63 l-48 37 -35 -39 c-126 -140 -363 -53
-363 134 0 92 70 189 147 203 18 3 33 9 33 13 -1 15 -28 105 -29 93z"/>
<path d="M3062 2868 c-12 -16 -31 -149 -20 -142 16 10 69 126 64 140 -7 17
-30 18 -44 2z"/>
<path d="M3190 2565 l0 -35 125 0 125 0 0 35 0 35 -125 0 -125 0 0 -35z"/>
<path d="M3155 2384 c-9 -14 -13 -29 -8 -33 4 -4 50 -43 101 -86 l94 -78 25
25 25 26 -103 86 c-56 47 -106 86 -110 86 -4 0 -14 -12 -24 -26z"/>
<path d="M2980 2195 l0 -125 35 0 35 0 0 125 0 125 -35 0 -35 0 0 -125z"/>
<path d="M2387 2104 c-4 -4 -7 -20 -7 -36 l0 -28 146 0 145 0 -3 33 -3 32
-136 3 c-74 1 -138 -1 -142 -4z"/>
<path d="M2384 1955 c-11 -27 16 -73 48 -84 40 -14 146 -14 186 0 22 7 34 20
42 45 6 18 9 38 5 44 -4 6 -60 10 -141 10 -111 0 -136 -3 -140 -15z"/>
<path d="M980 1575 l0 -175 30 0 30 0 0 175 0 175 -30 0 -30 0 0 -175z"/>
<path d="M1080 1576 l0 -176 30 0 29 0 3 116 3 115 48 -115 c49 -116 49 -116
83 -116 l34 0 0 175 0 175 -30 0 -30 0 0 -117 -1 -118 -47 115 -48 115 -37 3
-37 3 0 -175z"/>
<path d="M1340 1720 c0 -28 2 -30 40 -30 l40 0 0 -145 0 -145 30 0 29 0 3 143
3 142 38 3 c34 3 37 6 37 33 l0 29 -110 0 -110 0 0 -30z"/>
<path d="M1590 1575 l0 -175 100 0 100 0 0 30 0 30 -65 0 -65 0 0 45 0 45 55
0 c54 0 55 0 55 30 0 30 -1 30 -55 30 l-55 0 0 40 0 40 65 0 65 0 0 30 0 30
-100 0 -100 0 0 -175z"/>
<path d="M1861 1734 c-35 -25 -51 -75 -51 -159 0 -121 35 -178 110 -178 29 0
48 7 65 23 l25 23 0 -21 c0 -17 6 -22 25 -22 25 0 25 0 25 95 l0 95 -60 0
c-57 0 -60 -1 -60 -25 0 -20 5 -25 25 -25 20 0 25 -5 25 -25 0 -28 -32 -65
-55 -65 -56 0 -84 144 -44 222 21 40 81 29 93 -17 5 -20 13 -25 36 -25 24 0
30 4 30 20 0 29 -27 78 -49 90 -30 16 -114 12 -140 -6z"/>
<path d="M2090 1576 l0 -176 35 0 35 0 0 65 0 65 35 0 c42 0 55 -20 55 -84 l0
-46 36 0 c33 0 36 2 30 23 -3 12 -6 41 -6 65 0 28 -6 48 -19 61 -18 18 -18 19
2 39 29 30 28 105 -2 135 -18 19 -35 23 -111 25 l-90 4 0 -176z m148 102 c7
-7 12 -24 12 -38 0 -35 -17 -50 -57 -50 -33 0 -33 0 -33 50 0 50 0 50 33 50
18 0 38 -5 45 -12z"/>
<path d="M2411 1713 c-6 -21 -25 -100 -44 -175 l-35 -138 34 0 c30 0 34 3 40
35 l6 36 51 -3 c48 -3 51 -5 59 -35 8 -29 13 -33 42 -33 l34 0 -34 128 c-19
70 -40 148 -46 175 l-11 47 -43 0 c-41 0 -44 -2 -53 -37z m56 -181 c-16 -2
-31 -2 -33 1 -2 2 3 37 13 78 l17 74 16 -75 16 -75 -29 -3z"/>
<path d="M2732 1728 c-27 -30 -36 -67 -22 -103 13 -33 30 -48 87 -74 49 -23
73 -61 53 -86 -13 -16 -47 -20 -66 -7 -6 4 -14 17 -18 30 -6 16 -15 22 -37 22
-24 0 -29 -4 -29 -25 0 -14 13 -39 28 -56 24 -27 35 -31 80 -32 74 -1 106 24
110 86 4 63 -9 82 -78 117 -34 17 -61 38 -65 50 -15 48 56 71 77 25 8 -18 19
-25 41 -25 27 0 29 2 22 28 -13 52 -42 72 -105 72 -46 0 -61 -4 -78 -22z"/>
<path d="M2950 1575 l0 -175 95 0 95 0 0 30 0 30 -60 0 -60 0 0 45 0 45 55 0
c54 0 55 0 55 30 0 30 -1 30 -55 30 l-55 0 0 40 0 40 60 0 60 0 0 30 0 30 -95
0 -95 0 0 -175z"/>
<path d="M3170 1575 l0 -175 90 0 90 0 0 30 c0 30 -1 30 -55 30 l-55 0 0 145
0 145 -35 0 -35 0 0 -175z"/>
<path d="M3380 1576 l0 -176 90 0 90 0 0 30 c0 30 -1 30 -55 30 l-54 0 -3 143
-3 142 -32 3 -33 3 0 -175z"/>
<path d="M3580 1575 l0 -175 100 0 100 0 0 30 0 30 -65 0 -65 0 0 45 0 45 61
0 c60 0 60 0 57 28 -3 26 -6 27 -60 30 l-58 3 0 39 0 40 65 0 65 0 0 30 0 30
-100 0 -100 0 0 -175z"/>
<path d="M3810 1576 l0 -176 30 0 30 0 0 65 0 65 40 0 c44 0 47 -6 52 -85 3
-38 5 -40 37 -43 l34 -3 -7 62 c-8 67 -20 99 -37 99 -6 0 -1 8 11 18 15 12 24
33 27 63 4 38 1 50 -20 75 -24 27 -31 29 -111 33 l-86 3 0 -176z m144 98 c10
-25 7 -59 -6 -72 -7 -7 -27 -12 -45 -12 -33 0 -33 0 -33 50 l0 50 39 0 c26 0
41 -5 45 -16z"/>
<path d="M1400 1234 c-8 -8 -13 -28 -13 -44 0 -16 5 -36 13 -44 15 -19 51 -21
68 -4 10 10 15 10 23 -2 7 -11 9 -6 7 20 -3 30 -7 35 -30 38 -16 2 -28 -1 -28
-7 0 -6 9 -11 21 -11 23 0 21 -18 -4 -34 -24 -15 -51 4 -55 38 -6 50 33 72 70
39 20 -18 25 -4 6 15 -17 17 -63 15 -78 -4z"/>
<path d="M2005 1240 c3 -5 8 -10 11 -10 2 0 4 5 4 10 0 6 -5 10 -11 10 -5 0
-7 -4 -4 -10z"/>
<path d="M1532 1208 c-7 -7 -12 -25 -12 -40 0 -35 42 -50 68 -24 10 10 12 16
4 16 -7 0 -12 -5 -12 -11 0 -14 -42 -7 -48 9 -2 8 8 12 32 12 23 0 36 5 36 13
0 18 -21 37 -40 37 -9 0 -21 -5 -28 -12z m48 -13 c11 -13 8 -15 -19 -15 -31 0
-42 14 -18 23 20 9 24 8 37 -8z"/>
<path d="M1620 1178 c0 -27 5 -48 10 -48 13 0 13 60 0 80 -7 11 -10 2 -10 -32z"/>
<path d="M1645 1210 c-8 -13 5 -13 25 0 13 8 13 10 -2 10 -9 0 -20 -4 -23 -10z"/>
<path d="M1702 1208 c-16 -16 -15 -53 2 -68 18 -14 58 -10 64 8 3 11 1 11 -17
0 -18 -11 -23 -10 -38 5 -16 16 -15 17 20 17 30 0 37 4 37 19 0 29 -45 42 -68
19z m42 -4 c27 -10 18 -24 -15 -24 -27 0 -30 2 -19 15 14 17 13 17 34 9z"/>
<path d="M1813 1213 c-8 -3 -12 -21 -11 -46 1 -36 2 -37 5 -10 8 62 53 69 53
7 0 -19 5 -34 10 -34 13 0 13 46 0 71 -10 18 -31 23 -57 12z"/>
<path d="M1912 1208 c-16 -16 -15 -53 2 -68 18 -14 58 -10 64 8 3 11 1 11 -17
0 -18 -11 -23 -10 -38 5 -13 13 -15 21 -7 34 15 24 29 26 48 8 13 -14 16 -14
16 -2 0 26 -47 36 -68 15z"/>
<path d="M2013 1175 c0 -27 2 -38 4 -22 2 15 2 37 0 50 -2 12 -4 0 -4 -28z"/>
<path d="M2052 1208 c-16 -16 -15 -53 2 -68 19 -15 58 -9 64 10 5 13 3 13 -11
1 -18 -14 -47 -9 -47 9 0 5 16 10 35 10 38 0 40 2 25 31 -12 21 -50 25 -68 7z
m56 -15 c2 -8 -6 -13 -22 -13 -25 0 -33 10 -19 24 10 10 36 3 41 -11z"/>
<path d="M2211 1211 c-21 -13 -5 -41 23 -41 14 0 28 -5 31 -10 10 -16 -26 -24
-47 -11 -16 10 -19 10 -16 -1 7 -21 72 -17 76 5 3 12 -5 19 -27 23 -17 4 -34
11 -37 15 -8 14 26 23 39 10 17 -17 31 -13 17 4 -14 17 -38 19 -59 6z"/>
<path d="M2312 1208 c-16 -16 -15 -53 2 -68 18 -14 58 -10 64 8 3 11 1 11 -17
0 -18 -11 -23 -10 -38 5 -16 16 -15 17 20 17 30 0 37 4 37 19 0 29 -45 42 -68
19z m42 -4 c27 -10 18 -24 -15 -24 -27 0 -30 2 -19 15 14 17 13 17 34 9z"/>
<path d="M2405 1206 c-4 -10 -4 -30 1 -45 8 -20 16 -26 42 -27 32 -1 32 -1 31
45 l-2 46 -6 -40 c-5 -31 -10 -40 -26 -40 -16 0 -21 9 -26 40 -4 32 -7 36 -14
21z"/>
<path d="M2572 1208 c-16 -16 -15 -53 2 -68 19 -15 58 -9 64 10 5 13 3 13 -11
1 -18 -14 -47 -9 -47 9 0 5 16 10 35 10 38 0 40 2 25 31 -12 21 -50 25 -68 7z
m56 -15 c2 -8 -6 -13 -22 -13 -25 0 -33 10 -19 24 10 10 36 3 41 -11z"/>
<path d="M2676 1204 c-19 -18 -20 -28 -6 -55 13 -23 52 -25 70 -4 14 17 0 21
-17 4 -18 -18 -43 -2 -43 26 0 28 25 44 43 26 17 -17 31 -13 17 4 -16 19 -44
19 -64 -1z"/>
<path d="M2782 1208 c-7 -7 -12 -25 -12 -40 0 -21 6 -29 25 -34 31 -8 55 10
55 40 0 26 -18 46 -40 46 -9 0 -21 -5 -28 -12z m48 -13 c19 -23 8 -50 -20 -50
-19 0 -26 6 -28 24 -5 35 26 53 48 26z"/>
<path d="M2893 1213 c-8 -3 -12 -21 -11 -46 1 -36 2 -37 5 -10 4 34 26 59 43
48 5 -3 11 -23 12 -43 1 -36 1 -36 5 -5 8 62 53 69 53 7 0 -19 5 -34 11 -34 8
0 10 13 6 37 -8 48 -22 61 -47 45 -12 -7 -21 -8 -25 -2 -6 10 -31 12 -52 3z"/>
<path d="M3041 1178 c-1 -57 16 -65 21 -10 2 25 8 37 18 37 10 0 16 -12 18
-37 4 -48 22 -50 22 -4 0 62 45 55 53 -7 4 -32 4 -32 5 4 2 45 -20 69 -48 52
-13 -9 -20 -9 -29 0 -9 9 -16 9 -31 0 -14 -10 -20 -10 -23 0 -3 7 -6 -9 -6
-35z"/>
<path d="M3212 1208 c-16 -16 -15 -53 2 -68 19 -15 58 -9 64 10 5 13 3 13 -11
1 -18 -14 -47 -9 -47 9 0 5 16 10 35 10 38 0 40 2 25 31 -12 21 -50 25 -68 7z
m56 -15 c2 -8 -6 -13 -22 -13 -25 0 -33 10 -19 24 10 10 36 3 41 -11z"/>
<path d="M3311 1175 c1 -48 1 -49 9 -15 5 19 4 41 0 50 -6 10 -9 -1 -9 -35z"/>
<path d="M3335 1210 c-3 -5 -2 -10 4 -10 5 0 13 5 16 10 3 6 2 10 -4 10 -5 0
-13 -4 -16 -10z"/>
<path d="M3386 1204 c-19 -18 -20 -28 -6 -55 13 -23 52 -25 70 -4 14 17 0 21
-17 4 -18 -18 -43 -2 -43 26 0 28 25 44 43 26 17 -17 31 -13 17 4 -16 19 -44
19 -64 -1z"/>
<path d="M3486 1204 c-19 -18 -20 -28 -6 -55 13 -23 52 -25 70 -4 14 17 0 21
-17 4 -13 -13 -43 -5 -43 11 0 5 16 10 35 10 36 0 46 15 23 38 -17 17 -44 15
-62 -4z m52 -11 c2 -8 -6 -13 -22 -13 -25 0 -33 10 -19 24 10 10 36 3 41 -11z"/>
</g>
</svg>
